STARTFONT 2.1
FONT -FontForge-Fredoka One-Book-R-Normal--9-90-72-72-P-51-ISO10646-1
SIZE 9 72 72
FONTBOUNDINGBOX 12 11 -1 -2
COMMENT "Generated by fontforge, http://fontforge.sourceforge.net"
COMMENT "Copyright (c) 2011 Milena B Brandao (milenabbrandao@gmail.com), with Reserved Font Name "Fredoka""
STARTPROPERTIES 39
FOUNDRY "FontForge"
FAMILY_NAME "Fredoka One"
WEIGHT_NAME "Book"
SLANT "R"
SETWIDTH_NAME "Normal"
ADD_STYLE_NAME ""
PIXEL_SIZE 9
POINT_SIZE 90
RESOLUTION_X 72
RESOLUTION_Y 72
SPACING "P"
AVERAGE_WIDTH 51
CHARSET_REGISTRY "ISO10646"
CHARSET_ENCODING "1"
FONTNAME_REGISTRY ""
CHARSET_COLLECTIONS "ISO10646-1"
FONT_NAME "FredokaOne-Regular"
FACE_NAME "Fredoka One"
COPYRIGHT "Copyright (c) 2011 Milena B Brandao (milenabbrandao@gmail.com), with Reserved Font Name "Fredoka""
FONT_VERSION "1.001"
FONT_ASCENT 7
FONT_DESCENT 2
UNDERLINE_POSITION -1
UNDERLINE_THICKNESS 1
X_HEIGHT 4
CAP_HEIGHT 6
RAW_ASCENT 800
RAW_DESCENT 200
NORM_SPACE 2
RELATIVE_WEIGHT 40
RELATIVE_SETWIDTH 50
SUPERSCRIPT_X 0
SUPERSCRIPT_Y 4
SUPERSCRIPT_SIZE 5
SUBSCRIPT_X 0
SUBSCRIPT_Y 1
SUBSCRIPT_SIZE 5
AVG_LOWERCASE_WIDTH 49
AVG_UPPERCASE_WIDTH 62
ENDPROPERTIES
CHARS 235
STARTCHAR space
ENCODING 32
SWIDTH 253 0
DWIDTH 2 0
BBX 1 1 0 0
BITMAP
00
ENDCHAR
STARTCHAR exclam
ENCODING 33
SWIDTH 267 0
DWIDTH 2 0
BBX 2 7 0 0
BITMAP
40
C0
C0
C0
40
40
C0
ENDCHAR
STARTCHAR quotedbl
ENCODING 34
SWIDTH 429 0
DWIDTH 4 0
BBX 4 4 0 3
BITMAP
A0
F0
E0
A0
ENDCHAR
STARTCHAR numbersign
ENCODING 35
SWIDTH 749 0
DWIDTH 7 0
BBX 7 7 0 0
BITMAP
24
2C
FE
28
FC
48
48
ENDCHAR
STARTCHAR dollar
ENCODING 36
SWIDTH 475 0
DWIDTH 4 0
BBX 4 8 0 -1
BITMAP
20
60
D0
60
30
F0
20
20
ENDCHAR
STARTCHAR percent
ENCODING 37
SWIDTH 838 0
DWIDTH 8 0
BBX 7 7 0 0
BITMAP
64
E8
A8
70
1E
2A
26
ENDCHAR
STARTCHAR ampersand
ENCODING 38
SWIDTH 748 0
DWIDTH 7 0
BBX 7 7 0 0
BITMAP
70
58
70
60
F4
DC
7E
ENDCHAR
STARTCHAR quotesingle
ENCODING 39
SWIDTH 208 0
DWIDTH 2 0
BBX 2 4 0 3
BITMAP
80
C0
C0
80
ENDCHAR
STARTCHAR parenleft
ENCODING 40
SWIDTH 384 0
DWIDTH 3 0
BBX 3 9 0 -2
BITMAP
20
40
40
C0
C0
C0
40
40
60
ENDCHAR
STARTCHAR parenright
ENCODING 41
SWIDTH 384 0
DWIDTH 3 0
BBX 3 9 0 -2
BITMAP
C0
60
20
20
20
20
20
60
C0
ENDCHAR
STARTCHAR asterisk
ENCODING 42
SWIDTH 503 0
DWIDTH 5 0
BBX 4 4 0 3
BITMAP
20
F0
F0
70
ENDCHAR
STARTCHAR plus
ENCODING 43
SWIDTH 527 0
DWIDTH 5 0
BBX 5 5 0 0
BITMAP
20
20
F8
20
20
ENDCHAR
STARTCHAR comma
ENCODING 44
SWIDTH 238 0
DWIDTH 2 0
BBX 2 3 0 -1
BITMAP
C0
C0
C0
ENDCHAR
STARTCHAR hyphen
ENCODING 45
SWIDTH 433 0
DWIDTH 4 0
BBX 4 2 0 1
BITMAP
F0
F0
ENDCHAR
STARTCHAR period
ENCODING 46
SWIDTH 237 0
DWIDTH 2 0
BBX 2 2 0 0
BITMAP
C0
C0
ENDCHAR
STARTCHAR slash
ENCODING 47
SWIDTH 526 0
DWIDTH 5 0
BBX 5 8 0 -1
BITMAP
18
10
30
20
60
40
C0
40
ENDCHAR
STARTCHAR zero
ENCODING 48
SWIDTH 608 0
DWIDTH 5 0
BBX 5 7 0 0
BITMAP
30
78
D8
C8
C8
F8
70
ENDCHAR
STARTCHAR one
ENCODING 49
SWIDTH 407 0
DWIDTH 4 0
BBX 3 7 0 0
BITMAP
20
60
E0
20
20
20
20
ENDCHAR
STARTCHAR two
ENCODING 50
SWIDTH 609 0
DWIDTH 5 0
BBX 5 7 0 0
BITMAP
30
78
D8
98
30
F8
F8
ENDCHAR
STARTCHAR three
ENCODING 51
SWIDTH 608 0
DWIDTH 5 0
BBX 5 7 0 0
BITMAP
30
F8
58
30
18
D8
78
ENDCHAR
STARTCHAR four
ENCODING 52
SWIDTH 592 0
DWIDTH 5 0
BBX 5 7 0 0
BITMAP
48
78
58
D8
F8
18
18
ENDCHAR
STARTCHAR five
ENCODING 53
SWIDTH 530 0
DWIDTH 5 0
BBX 5 7 0 0
BITMAP
70
70
C0
F0
58
F0
70
ENDCHAR
STARTCHAR six
ENCODING 54
SWIDTH 560 0
DWIDTH 5 0
BBX 5 7 0 0
BITMAP
10
78
40
F0
D8
D8
70
ENDCHAR
STARTCHAR seven
ENCODING 55
SWIDTH 561 0
DWIDTH 5 0
BBX 5 7 0 0
BITMAP
F8
F8
18
30
20
60
60
ENDCHAR
STARTCHAR eight
ENCODING 56
SWIDTH 582 0
DWIDTH 5 0
BBX 5 7 0 0
BITMAP
30
78
D8
70
D8
D8
70
ENDCHAR
STARTCHAR nine
ENCODING 57
SWIDTH 560 0
DWIDTH 5 0
BBX 5 7 0 0
BITMAP
70
F8
D8
78
18
70
E0
ENDCHAR
STARTCHAR colon
ENCODING 58
SWIDTH 238 0
DWIDTH 2 0
BBX 2 5 0 0
BITMAP
40
C0
00
C0
C0
ENDCHAR
STARTCHAR semicolon
ENCODING 59
SWIDTH 237 0
DWIDTH 2 0
BBX 2 6 0 -1
BITMAP
40
C0
00
C0
C0
C0
ENDCHAR
STARTCHAR less
ENCODING 60
SWIDTH 627 0
DWIDTH 6 0
BBX 6 6 0 0
BITMAP
1C
38
E0
E0
38
0C
ENDCHAR
STARTCHAR equal
ENCODING 61
SWIDTH 478 0
DWIDTH 4 0
BBX 4 4 0 0
BITMAP
F0
F0
F0
F0
ENDCHAR
STARTCHAR greater
ENCODING 62
SWIDTH 627 0
DWIDTH 6 0
BBX 6 6 0 0
BITMAP
C0
70
1C
38
70
C0
ENDCHAR
STARTCHAR question
ENCODING 63
SWIDTH 512 0
DWIDTH 5 0
BBX 4 7 0 0
BITMAP
60
F0
50
30
20
20
60
ENDCHAR
STARTCHAR at
ENCODING 64
SWIDTH 908 0
DWIDTH 8 0
BBX 8 7 0 -1
BITMAP
3C
42
FD
AD
B9
4E
70
ENDCHAR
STARTCHAR A
ENCODING 65
SWIDTH 765 0
DWIDTH 7 0
BBX 7 7 0 0
BITMAP
10
30
38
68
7C
FC
C6
ENDCHAR
STARTCHAR B
ENCODING 66
SWIDTH 646 0
DWIDTH 6 0
BBX 6 7 0 0
BITMAP
70
F8
C8
D8
CC
FC
F8
ENDCHAR
STARTCHAR C
ENCODING 67
SWIDTH 679 0
DWIDTH 6 0
BBX 6 7 0 0
BITMAP
18
7C
C0
C0
C0
7C
3C
ENDCHAR
STARTCHAR D
ENCODING 68
SWIDTH 704 0
DWIDTH 6 0
BBX 6 7 0 0
BITMAP
70
F8
CC
C4
CC
FC
F8
ENDCHAR
STARTCHAR E
ENCODING 69
SWIDTH 638 0
DWIDTH 6 0
BBX 6 7 0 0
BITMAP
78
FC
C0
F8
F0
F8
FC
ENDCHAR
STARTCHAR F
ENCODING 70
SWIDTH 637 0
DWIDTH 6 0
BBX 6 7 0 0
BITMAP
78
FC
C0
F8
F0
C0
C0
ENDCHAR
STARTCHAR G
ENCODING 71
SWIDTH 714 0
DWIDTH 6 0
BBX 6 7 0 0
BITMAP
38
7C
C0
DC
CC
7C
3C
ENDCHAR
STARTCHAR H
ENCODING 72
SWIDTH 699 0
DWIDTH 6 0
BBX 6 7 0 0
BITMAP
44
CC
CC
FC
CC
CC
CC
ENDCHAR
STARTCHAR I
ENCODING 73
SWIDTH 257 0
DWIDTH 2 0
BBX 2 7 0 0
BITMAP
40
C0
C0
C0
C0
C0
C0
ENDCHAR
STARTCHAR J
ENCODING 74
SWIDTH 549 0
DWIDTH 5 0
BBX 5 7 0 0
BITMAP
10
18
18
18
18
F0
70
ENDCHAR
STARTCHAR K
ENCODING 75
SWIDTH 639 0
DWIDTH 6 0
BBX 5 7 0 0
BITMAP
48
D8
F0
E0
F0
D8
C8
ENDCHAR
STARTCHAR L
ENCODING 76
SWIDTH 587 0
DWIDTH 5 0
BBX 5 7 0 0
BITMAP
40
C0
C0
C0
C0
C0
F8
ENDCHAR
STARTCHAR M
ENCODING 77
SWIDTH 870 0
DWIDTH 8 0
BBX 7 7 0 0
BITMAP
42
E6
E6
FE
DA
C2
C2
ENDCHAR
STARTCHAR N
ENCODING 78
SWIDTH 720 0
DWIDTH 6 0
BBX 6 7 0 0
BITMAP
44
E4
E4
F4
DC
CC
CC
ENDCHAR
STARTCHAR O
ENCODING 79
SWIDTH 775 0
DWIDTH 7 0
BBX 7 7 0 0
BITMAP
38
7C
C6
C6
C6
6C
38
ENDCHAR
STARTCHAR P
ENCODING 80
SWIDTH 632 0
DWIDTH 6 0
BBX 5 7 0 0
BITMAP
70
F8
C8
D8
F8
C0
C0
ENDCHAR
STARTCHAR Q
ENCODING 81
SWIDTH 830 0
DWIDTH 7 0
BBX 7 7 0 0
BITMAP
38
7C
C6
C6
C6
6E
3E
ENDCHAR
STARTCHAR R
ENCODING 82
SWIDTH 631 0
DWIDTH 6 0
BBX 6 7 0 0
BITMAP
70
F8
C8
D8
F8
C8
CC
ENDCHAR
STARTCHAR S
ENCODING 83
SWIDTH 583 0
DWIDTH 5 0
BBX 5 7 0 0
BITMAP
70
F8
C0
70
18
D8
70
ENDCHAR
STARTCHAR T
ENCODING 84
SWIDTH 731 0
DWIDTH 7 0
BBX 6 7 0 0
BITMAP
FC
FC
10
10
10
10
10
ENDCHAR
STARTCHAR U
ENCODING 85
SWIDTH 726 0
DWIDTH 7 0
BBX 6 7 0 0
BITMAP
44
C4
C4
C4
CC
7C
38
ENDCHAR
STARTCHAR V
ENCODING 86
SWIDTH 783 0
DWIDTH 7 0
BBX 7 7 0 0
BITMAP
44
C6
44
6C
28
38
10
ENDCHAR
STARTCHAR W
ENCODING 87
SWIDTH 999 0
DWIDTH 9 0
BBX 9 7 0 0
BITMAP
4900
C980
5D00
7700
7700
3600
2200
ENDCHAR
STARTCHAR X
ENCODING 88
SWIDTH 741 0
DWIDTH 7 0
BBX 7 7 0 0
BITMAP
44
CE
78
38
38
6C
C6
ENDCHAR
STARTCHAR Y
ENCODING 89
SWIDTH 686 0
DWIDTH 6 0
BBX 6 7 0 0
BITMAP
44
CC
78
38
30
30
30
ENDCHAR
STARTCHAR Z
ENCODING 90
SWIDTH 643 0
DWIDTH 6 0
BBX 6 7 0 0
BITMAP
F8
F8
18
30
60
78
FC
ENDCHAR
STARTCHAR bracketleft
ENCODING 91
SWIDTH 348 0
DWIDTH 3 0
BBX 3 9 0 -2
BITMAP
E0
C0
C0
C0
C0
C0
C0
C0
E0
ENDCHAR
STARTCHAR backslash
ENCODING 92
SWIDTH 528 0
DWIDTH 5 0
BBX 5 8 0 -1
BITMAP
C0
C0
60
60
30
30
18
10
ENDCHAR
STARTCHAR bracketright
ENCODING 93
SWIDTH 348 0
DWIDTH 3 0
BBX 3 9 0 -2
BITMAP
E0
60
60
60
60
60
60
60
E0
ENDCHAR
STARTCHAR asciicircum
ENCODING 94
SWIDTH 526 0
DWIDTH 5 0
BBX 4 3 0 2
BITMAP
20
70
D0
ENDCHAR
STARTCHAR underscore
ENCODING 95
SWIDTH 826 0
DWIDTH 7 0
BBX 7 1 0 -2
BITMAP
FE
ENDCHAR
STARTCHAR grave
ENCODING 96
SWIDTH 482 0
DWIDTH 4 0
BBX 3 2 1 5
BITMAP
C0
60
ENDCHAR
STARTCHAR a
ENCODING 97
SWIDTH 596 0
DWIDTH 5 0
BBX 5 5 0 0
BITMAP
68
F8
D8
F8
78
ENDCHAR
STARTCHAR b
ENCODING 98
SWIDTH 592 0
DWIDTH 5 0
BBX 5 7 0 0
BITMAP
C0
C0
F0
F8
C8
F8
F0
ENDCHAR
STARTCHAR c
ENCODING 99
SWIDTH 517 0
DWIDTH 5 0
BBX 4 5 0 0
BITMAP
30
F0
C0
F0
70
ENDCHAR
STARTCHAR d
ENCODING 100
SWIDTH 598 0
DWIDTH 5 0
BBX 5 7 0 0
BITMAP
18
18
38
78
D8
F8
78
ENDCHAR
STARTCHAR e
ENCODING 101
SWIDTH 573 0
DWIDTH 5 0
BBX 5 5 0 0
BITMAP
70
F8
F8
C8
78
ENDCHAR
STARTCHAR f
ENCODING 102
SWIDTH 450 0
DWIDTH 4 0
BBX 4 7 0 0
BITMAP
30
60
F0
F0
60
60
60
ENDCHAR
STARTCHAR g
ENCODING 103
SWIDTH 585 0
DWIDTH 5 0
BBX 5 7 0 -2
BITMAP
78
F8
D8
F8
78
58
70
ENDCHAR
STARTCHAR h
ENCODING 104
SWIDTH 605 0
DWIDTH 5 0
BBX 5 7 0 0
BITMAP
C0
C0
F0
F8
C8
C8
C8
ENDCHAR
STARTCHAR i
ENCODING 105
SWIDTH 255 0
DWIDTH 2 0
BBX 2 7 0 0
BITMAP
C0
40
C0
C0
C0
C0
C0
ENDCHAR
STARTCHAR j
ENCODING 106
SWIDTH 252 0
DWIDTH 2 0
BBX 3 9 -1 -2
BITMAP
60
20
60
60
60
60
60
E0
C0
ENDCHAR
STARTCHAR k
ENCODING 107
SWIDTH 536 0
DWIDTH 5 0
BBX 5 7 0 0
BITMAP
C0
C0
D0
F0
E0
F0
D8
ENDCHAR
STARTCHAR l
ENCODING 108
SWIDTH 327 0
DWIDTH 3 0
BBX 3 7 0 0
BITMAP
C0
C0
C0
C0
C0
C0
60
ENDCHAR
STARTCHAR m
ENCODING 109
SWIDTH 851 0
DWIDTH 8 0
BBX 7 5 0 0
BITMAP
F4
FE
DA
DA
DA
ENDCHAR
STARTCHAR n
ENCODING 110
SWIDTH 606 0
DWIDTH 5 0
BBX 5 5 0 0
BITMAP
F0
F8
C8
C8
C8
ENDCHAR
STARTCHAR o
ENCODING 111
SWIDTH 600 0
DWIDTH 5 0
BBX 5 5 0 0
BITMAP
70
F8
C8
F8
70
ENDCHAR
STARTCHAR p
ENCODING 112
SWIDTH 582 0
DWIDTH 5 0
BBX 5 7 0 -2
BITMAP
F0
F8
D8
F8
F0
C0
C0
ENDCHAR
STARTCHAR q
ENCODING 113
SWIDTH 582 0
DWIDTH 5 0
BBX 5 7 0 -2
BITMAP
78
F8
D8
F8
78
18
18
ENDCHAR
STARTCHAR r
ENCODING 114
SWIDTH 457 0
DWIDTH 4 0
BBX 4 5 0 0
BITMAP
F0
F0
C0
C0
C0
ENDCHAR
STARTCHAR s
ENCODING 115
SWIDTH 489 0
DWIDTH 4 0
BBX 4 5 0 0
BITMAP
70
D0
70
90
F0
ENDCHAR
STARTCHAR t
ENCODING 116
SWIDTH 449 0
DWIDTH 4 0
BBX 4 6 0 0
BITMAP
60
F0
F0
60
60
70
ENDCHAR
STARTCHAR u
ENCODING 117
SWIDTH 606 0
DWIDTH 5 0
BBX 5 5 0 0
BITMAP
C8
C8
C8
F8
68
ENDCHAR
STARTCHAR v
ENCODING 118
SWIDTH 638 0
DWIDTH 6 0
BBX 6 5 0 0
BITMAP
CC
C8
78
30
30
ENDCHAR
STARTCHAR w
ENCODING 119
SWIDTH 793 0
DWIDTH 7 0
BBX 7 5 0 0
BITMAP
D2
DE
7C
6C
2C
ENDCHAR
STARTCHAR x
ENCODING 120
SWIDTH 567 0
DWIDTH 5 0
BBX 5 5 0 0
BITMAP
C8
F8
70
78
D8
ENDCHAR
STARTCHAR y
ENCODING 121
SWIDTH 604 0
DWIDTH 5 0
BBX 5 7 0 -2
BITMAP
C8
D8
78
30
30
20
60
ENDCHAR
STARTCHAR z
ENCODING 122
SWIDTH 586 0
DWIDTH 5 0
BBX 5 5 0 0
BITMAP
78
F8
30
78
F8
ENDCHAR
STARTCHAR braceleft
ENCODING 123
SWIDTH 381 0
DWIDTH 3 0
BBX 3 9 0 -2
BITMAP
20
60
40
40
C0
40
40
40
20
ENDCHAR
STARTCHAR bar
ENCODING 124
SWIDTH 217 0
DWIDTH 2 0
BBX 2 9 0 -2
BITMAP
C0
C0
C0
C0
C0
C0
C0
C0
C0
ENDCHAR
STARTCHAR braceright
ENCODING 125
SWIDTH 381 0
DWIDTH 3 0
BBX 3 9 0 -2
BITMAP
C0
40
40
40
60
40
40
40
C0
ENDCHAR
STARTCHAR asciitilde
ENCODING 126
SWIDTH 651 0
DWIDTH 6 0
BBX 5 2 0 1
BITMAP
F8
50
ENDCHAR
STARTCHAR exclamdown
ENCODING 161
SWIDTH 268 0
DWIDTH 2 0
BBX 2 7 0 -2
BITMAP
40
C0
00
C0
C0
C0
C0
ENDCHAR
STARTCHAR cent
ENCODING 162
SWIDTH 434 0
DWIDTH 4 0
BBX 4 7 0 -1
BITMAP
20
20
F0
C0
70
20
20
ENDCHAR
STARTCHAR sterling
ENCODING 163
SWIDTH 675 0
DWIDTH 6 0
BBX 6 7 0 0
BITMAP
10
7C
40
F0
60
60
7C
ENDCHAR
STARTCHAR currency
ENCODING 164
SWIDTH 677 0
DWIDTH 6 0
BBX 6 7 0 0
BITMAP
84
78
4C
CC
4C
78
84
ENDCHAR
STARTCHAR yen
ENCODING 165
SWIDTH 677 0
DWIDTH 6 0
BBX 6 7 0 0
BITMAP
44
CC
78
38
78
78
30
ENDCHAR
STARTCHAR brokenbar
ENCODING 166
SWIDTH 215 0
DWIDTH 2 0
BBX 2 9 0 -2
BITMAP
C0
C0
C0
C0
00
C0
C0
C0
C0
ENDCHAR
STARTCHAR section
ENCODING 167
SWIDTH 560 0
DWIDTH 5 0
BBX 5 9 0 -2
BITMAP
70
F0
C0
78
D8
78
18
D8
70
ENDCHAR
STARTCHAR dieresis
ENCODING 168
SWIDTH 489 0
DWIDTH 4 0
BBX 4 2 0 5
BITMAP
D0
50
ENDCHAR
STARTCHAR copyright
ENCODING 169
SWIDTH 711 0
DWIDTH 6 0
BBX 6 6 0 1
BITMAP
38
54
B4
C4
B4
78
ENDCHAR
STARTCHAR ordfeminine
ENCODING 170
SWIDTH 445 0
DWIDTH 4 0
BBX 4 3 0 3
BITMAP
F0
B0
70
ENDCHAR
STARTCHAR guillemotleft
ENCODING 171
SWIDTH 668 0
DWIDTH 6 0
BBX 6 5 0 0
BITMAP
24
6C
D8
78
2C
ENDCHAR
STARTCHAR logicalnot
ENCODING 172
SWIDTH 526 0
DWIDTH 5 0
BBX 5 3 0 1
BITMAP
F8
F8
18
ENDCHAR
STARTCHAR registered
ENCODING 174
SWIDTH 711 0
DWIDTH 6 0
BBX 6 6 0 1
BITMAP
38
74
AC
B4
AC
78
ENDCHAR
STARTCHAR degree
ENCODING 176
SWIDTH 407 0
DWIDTH 4 0
BBX 3 3 0 4
BITMAP
60
A0
E0
ENDCHAR
STARTCHAR plusminus
ENCODING 177
SWIDTH 505 0
DWIDTH 5 0
BBX 4 5 0 0
BITMAP
20
F0
20
00
F0
ENDCHAR
STARTCHAR twosuperior
ENCODING 178
SWIDTH 455 0
DWIDTH 4 0
BBX 4 5 0 2
BITMAP
60
F0
B0
60
F0
ENDCHAR
STARTCHAR threesuperior
ENCODING 179
SWIDTH 457 0
DWIDTH 4 0
BBX 4 5 0 2
BITMAP
60
F0
20
D0
70
ENDCHAR
STARTCHAR acute
ENCODING 180
SWIDTH 605 0
DWIDTH 5 0
BBX 3 2 1 5
BITMAP
60
C0
ENDCHAR
STARTCHAR mu
ENCODING 181
SWIDTH 601 0
DWIDTH 5 0
BBX 5 7 0 -2
BITMAP
C8
D8
D8
F8
E8
C0
C0
ENDCHAR
STARTCHAR paragraph
ENCODING 182
SWIDTH 614 0
DWIDTH 6 0
BBX 5 8 0 -2
BITMAP
30
E8
E8
68
28
28
28
28
ENDCHAR
STARTCHAR periodcentered
ENCODING 183
SWIDTH 237 0
DWIDTH 2 0
BBX 2 2 0 2
BITMAP
C0
C0
ENDCHAR
STARTCHAR cedilla
ENCODING 184
SWIDTH 559 0
DWIDTH 5 0
BBX 1 2 2 -2
BITMAP
80
80
ENDCHAR
STARTCHAR onesuperior
ENCODING 185
SWIDTH 321 0
DWIDTH 3 0
BBX 3 5 0 2
BITMAP
40
E0
60
60
60
ENDCHAR
STARTCHAR ordmasculine
ENCODING 186
SWIDTH 439 0
DWIDTH 4 0
BBX 4 3 0 3
BITMAP
E0
90
60
ENDCHAR
STARTCHAR guillemotright
ENCODING 187
SWIDTH 669 0
DWIDTH 6 0
BBX 6 5 0 0
BITMAP
90
D8
6C
78
D0
ENDCHAR
STARTCHAR onequarter
ENCODING 188
SWIDTH 786 0
DWIDTH 7 0
BBX 7 7 0 0
BITMAP
48
C8
50
5A
2E
2E
46
ENDCHAR
STARTCHAR onehalf
ENCODING 189
SWIDTH 804 0
DWIDTH 7 0
BBX 7 7 0 0
BITMAP
48
C8
50
5C
2A
2C
4E
ENDCHAR
STARTCHAR threequarters
ENCODING 190
SWIDTH 842 0
DWIDTH 8 0
BBX 7 7 0 0
BITMAP
64
68
A8
76
1E
2E
22
ENDCHAR
STARTCHAR questiondown
ENCODING 191
SWIDTH 511 0
DWIDTH 5 0
BBX 4 7 0 -2
BITMAP
20
60
00
60
C0
D0
70
ENDCHAR
STARTCHAR Agrave
ENCODING 192
SWIDTH 765 0
DWIDTH 7 0
BBX 7 9 0 0
BITMAP
20
38
10
30
38
68
7C
FC
C6
ENDCHAR
STARTCHAR Aacute
ENCODING 193
SWIDTH 765 0
DWIDTH 7 0
BBX 7 9 0 0
BITMAP
08
38
10
30
38
68
7C
FC
C6
ENDCHAR
STARTCHAR Acircumflex
ENCODING 194
SWIDTH 765 0
DWIDTH 7 0
BBX 7 9 0 0
BITMAP
10
38
10
30
38
68
7C
FC
C6
ENDCHAR
STARTCHAR Atilde
ENCODING 195
SWIDTH 765 0
DWIDTH 7 0
BBX 7 9 0 0
BITMAP
38
38
10
30
38
68
7C
FC
C6
ENDCHAR
STARTCHAR Adieresis
ENCODING 196
SWIDTH 765 0
DWIDTH 7 0
BBX 7 9 0 0
BITMAP
28
68
10
30
38
68
7C
FC
C6
ENDCHAR
STARTCHAR Aring
ENCODING 197
SWIDTH 765 0
DWIDTH 7 0
BBX 7 8 0 0
BITMAP
38
30
30
38
68
7C
FC
C6
ENDCHAR
STARTCHAR AE
ENCODING 198
SWIDTH 1148 0
DWIDTH 10 0
BBX 10 7 0 0
BITMAP
07C0
0FC0
1E00
3780
7E00
FFC0
C7C0
ENDCHAR
STARTCHAR Ccedilla
ENCODING 199
SWIDTH 679 0
DWIDTH 6 0
BBX 6 9 0 -2
BITMAP
18
7C
C0
C0
C0
7C
38
10
10
ENDCHAR
STARTCHAR Egrave
ENCODING 200
SWIDTH 638 0
DWIDTH 6 0
BBX 6 9 0 0
BITMAP
20
30
78
FC
C0
F8
F0
F8
FC
ENDCHAR
STARTCHAR Eacute
ENCODING 201
SWIDTH 638 0
DWIDTH 6 0
BBX 6 9 0 0
BITMAP
10
30
78
FC
C0
F8
F0
F8
FC
ENDCHAR
STARTCHAR Ecircumflex
ENCODING 202
SWIDTH 638 0
DWIDTH 6 0
BBX 6 9 0 0
BITMAP
30
78
78
FC
C0
F8
F0
F8
FC
ENDCHAR
STARTCHAR Edieresis
ENCODING 203
SWIDTH 638 0
DWIDTH 6 0
BBX 6 9 0 0
BITMAP
58
78
78
FC
C0
F8
F0
F8
FC
ENDCHAR
STARTCHAR Igrave
ENCODING 204
SWIDTH 267 0
DWIDTH 2 0
BBX 2 9 0 0
BITMAP
80
C0
40
C0
C0
C0
C0
C0
C0
ENDCHAR
STARTCHAR Iacute
ENCODING 205
SWIDTH 269 0
DWIDTH 2 0
BBX 3 9 0 0
BITMAP
60
E0
40
C0
C0
C0
C0
C0
C0
ENDCHAR
STARTCHAR Icircumflex
ENCODING 206
SWIDTH 270 0
DWIDTH 2 0
BBX 4 9 -1 0
BITMAP
60
F0
20
60
60
60
60
60
60
ENDCHAR
STARTCHAR Idieresis
ENCODING 207
SWIDTH 268 0
DWIDTH 2 0
BBX 4 9 -1 0
BITMAP
D0
D0
20
60
60
60
60
60
60
ENDCHAR
STARTCHAR Eth
ENCODING 208
SWIDTH 775 0
DWIDTH 7 0
BBX 7 7 0 0
BITMAP
70
7C
66
E6
66
7C
78
ENDCHAR
STARTCHAR Ntilde
ENCODING 209
SWIDTH 720 0
DWIDTH 6 0
BBX 6 9 0 0
BITMAP
28
78
44
E4
E4
F4
DC
CC
CC
ENDCHAR
STARTCHAR Ograve
ENCODING 210
SWIDTH 775 0
DWIDTH 7 0
BBX 7 9 0 0
BITMAP
20
38
38
7C
C6
C6
C6
6C
38
ENDCHAR
STARTCHAR Oacute
ENCODING 211
SWIDTH 775 0
DWIDTH 7 0
BBX 7 9 0 0
BITMAP
08
38
38
7C
C6
C6
C6
6C
38
ENDCHAR
STARTCHAR Ocircumflex
ENCODING 212
SWIDTH 775 0
DWIDTH 7 0
BBX 7 9 0 0
BITMAP
10
38
38
7C
C6
C6
C6
6C
38
ENDCHAR
STARTCHAR Otilde
ENCODING 213
SWIDTH 775 0
DWIDTH 7 0
BBX 7 9 0 0
BITMAP
38
38
38
7C
C6
C6
C6
6C
38
ENDCHAR
STARTCHAR Odieresis
ENCODING 214
SWIDTH 775 0
DWIDTH 7 0
BBX 7 9 0 0
BITMAP
28
68
38
7C
C6
C6
C6
6C
38
ENDCHAR
STARTCHAR multiply
ENCODING 215
SWIDTH 521 0
DWIDTH 5 0
BBX 4 4 0 0
BITMAP
F0
60
F0
50
ENDCHAR
STARTCHAR Oslash
ENCODING 216
SWIDTH 775 0
DWIDTH 7 0
BBX 7 8 0 -1
BITMAP
3C
7C
DE
D6
F6
7C
78
20
ENDCHAR
STARTCHAR Ugrave
ENCODING 217
SWIDTH 726 0
DWIDTH 7 0
BBX 6 9 0 0
BITMAP
20
70
44
C4
C4
C4
CC
7C
38
ENDCHAR
STARTCHAR Uacute
ENCODING 218
SWIDTH 726 0
DWIDTH 7 0
BBX 6 9 0 0
BITMAP
08
38
44
C4
C4
C4
CC
7C
38
ENDCHAR
STARTCHAR Ucircumflex
ENCODING 219
SWIDTH 726 0
DWIDTH 7 0
BBX 6 9 0 0
BITMAP
30
38
44
C4
C4
C4
CC
7C
38
ENDCHAR
STARTCHAR Udieresis
ENCODING 220
SWIDTH 726 0
DWIDTH 7 0
BBX 6 9 0 0
BITMAP
68
68
44
C4
C4
C4
CC
7C
38
ENDCHAR
STARTCHAR Yacute
ENCODING 221
SWIDTH 686 0
DWIDTH 6 0
BBX 6 9 0 0
BITMAP
10
38
44
CC
78
38
30
30
30
ENDCHAR
STARTCHAR Thorn
ENCODING 222
SWIDTH 634 0
DWIDTH 6 0
BBX 5 7 0 0
BITMAP
40
F0
F8
C8
F8
F8
C0
ENDCHAR
STARTCHAR germandbls
ENCODING 223
SWIDTH 633 0
DWIDTH 6 0
BBX 5 7 0 0
BITMAP
70
F8
D0
F0
D8
E8
F8
ENDCHAR
STARTCHAR agrave
ENCODING 224
SWIDTH 596 0
DWIDTH 5 0
BBX 5 7 0 0
BITMAP
70
30
68
F8
D8
F8
78
ENDCHAR
STARTCHAR aacute
ENCODING 225
SWIDTH 596 0
DWIDTH 5 0
BBX 5 7 0 0
BITMAP
30
20
68
F8
D8
F8
78
ENDCHAR
STARTCHAR acircumflex
ENCODING 226
SWIDTH 596 0
DWIDTH 5 0
BBX 5 7 0 0
BITMAP
70
78
68
F8
D8
F8
78
ENDCHAR
STARTCHAR atilde
ENCODING 227
SWIDTH 596 0
DWIDTH 5 0
BBX 5 7 0 0
BITMAP
78
50
68
F8
D8
F8
78
ENDCHAR
STARTCHAR adieresis
ENCODING 228
SWIDTH 596 0
DWIDTH 5 0
BBX 5 7 0 0
BITMAP
78
48
68
F8
D8
F8
78
ENDCHAR
STARTCHAR aring
ENCODING 229
SWIDTH 596 0
DWIDTH 5 0
BBX 5 7 0 0
BITMAP
30
30
68
F8
D8
F8
78
ENDCHAR
STARTCHAR ae
ENCODING 230
SWIDTH 910 0
DWIDTH 8 0
BBX 8 5 0 0
BITMAP
76
FF
3F
D9
FF
ENDCHAR
STARTCHAR ccedilla
ENCODING 231
SWIDTH 524 0
DWIDTH 5 0
BBX 4 7 0 -2
BITMAP
70
F0
C0
F0
70
30
20
ENDCHAR
STARTCHAR egrave
ENCODING 232
SWIDTH 573 0
DWIDTH 5 0
BBX 5 7 0 0
BITMAP
60
30
70
F8
F8
C8
78
ENDCHAR
STARTCHAR eacute
ENCODING 233
SWIDTH 573 0
DWIDTH 5 0
BBX 5 7 0 0
BITMAP
30
20
70
F8
F8
C8
78
ENDCHAR
STARTCHAR ecircumflex
ENCODING 234
SWIDTH 573 0
DWIDTH 5 0
BBX 5 7 0 0
BITMAP
70
50
70
F8
F8
C8
78
ENDCHAR
STARTCHAR edieresis
ENCODING 235
SWIDTH 573 0
DWIDTH 5 0
BBX 5 7 0 0
BITMAP
58
50
70
F8
F8
C8
78
ENDCHAR
STARTCHAR igrave
ENCODING 236
SWIDTH 255 0
DWIDTH 2 0
BBX 2 7 0 0
BITMAP
C0
C0
C0
C0
C0
C0
C0
ENDCHAR
STARTCHAR iacute
ENCODING 237
SWIDTH 255 0
DWIDTH 2 0
BBX 3 7 0 0
BITMAP
60
C0
C0
C0
C0
C0
C0
ENDCHAR
STARTCHAR icircumflex
ENCODING 238
SWIDTH 255 0
DWIDTH 2 0
BBX 4 7 -1 0
BITMAP
F0
50
60
60
60
60
60
ENDCHAR
STARTCHAR idieresis
ENCODING 239
SWIDTH 255 0
DWIDTH 2 0
BBX 4 7 -1 0
BITMAP
D0
D0
60
60
60
60
60
ENDCHAR
STARTCHAR eth
ENCODING 240
SWIDTH 585 0
DWIDTH 5 0
BBX 5 7 0 0
BITMAP
70
70
28
78
D8
D8
70
ENDCHAR
STARTCHAR ntilde
ENCODING 241
SWIDTH 606 0
DWIDTH 5 0
BBX 5 7 0 0
BITMAP
78
50
F0
F8
C8
C8
C8
ENDCHAR
STARTCHAR ograve
ENCODING 242
SWIDTH 600 0
DWIDTH 5 0
BBX 5 7 0 0
BITMAP
60
30
70
F8
C8
F8
70
ENDCHAR
STARTCHAR oacute
ENCODING 243
SWIDTH 600 0
DWIDTH 5 0
BBX 5 7 0 0
BITMAP
30
20
70
F8
C8
F8
70
ENDCHAR
STARTCHAR ocircumflex
ENCODING 244
SWIDTH 600 0
DWIDTH 5 0
BBX 5 7 0 0
BITMAP
78
50
70
F8
C8
F8
70
ENDCHAR
STARTCHAR otilde
ENCODING 245
SWIDTH 600 0
DWIDTH 5 0
BBX 5 7 0 0
BITMAP
78
50
70
F8
C8
F8
70
ENDCHAR
STARTCHAR odieresis
ENCODING 246
SWIDTH 600 0
DWIDTH 5 0
BBX 5 7 0 0
BITMAP
58
58
70
F8
C8
F8
70
ENDCHAR
STARTCHAR divide
ENCODING 247
SWIDTH 503 0
DWIDTH 5 0
BBX 4 5 0 0
BITMAP
20
20
F0
00
20
ENDCHAR
STARTCHAR oslash
ENCODING 248
SWIDTH 600 0
DWIDTH 5 0
BBX 5 7 0 -1
BITMAP
18
78
F8
C8
F8
70
C0
ENDCHAR
STARTCHAR ugrave
ENCODING 249
SWIDTH 606 0
DWIDTH 5 0
BBX 5 7 0 0
BITMAP
60
30
C8
C8
C8
F8
68
ENDCHAR
STARTCHAR uacute
ENCODING 250
SWIDTH 606 0
DWIDTH 5 0
BBX 5 7 0 0
BITMAP
30
20
C8
C8
C8
F8
68
ENDCHAR
STARTCHAR ucircumflex
ENCODING 251
SWIDTH 606 0
DWIDTH 5 0
BBX 5 7 0 0
BITMAP
78
50
C8
C8
C8
F8
68
ENDCHAR
STARTCHAR udieresis
ENCODING 252
SWIDTH 606 0
DWIDTH 5 0
BBX 5 7 0 0
BITMAP
58
58
C8
C8
C8
F8
68
ENDCHAR
STARTCHAR yacute
ENCODING 253
SWIDTH 604 0
DWIDTH 5 0
BBX 5 9 0 -2
BITMAP
30
20
C8
D8
78
30
30
20
60
ENDCHAR
STARTCHAR thorn
ENCODING 254
SWIDTH 580 0
DWIDTH 5 0
BBX 5 9 0 -2
BITMAP
C0
C0
F0
F8
D8
F8
F0
C0
C0
ENDCHAR
STARTCHAR ydieresis
ENCODING 255
SWIDTH 604 0
DWIDTH 5 0
BBX 5 9 0 -2
BITMAP
58
58
C8
D8
78
30
30
20
60
ENDCHAR
STARTCHAR dotlessi
ENCODING 305
SWIDTH 255 0
DWIDTH 2 0
BBX 2 5 0 0
BITMAP
C0
C0
C0
C0
C0
ENDCHAR
STARTCHAR Lslash
ENCODING 321
SWIDTH 687 0
DWIDTH 6 0
BBX 6 7 0 0
BITMAP
20
60
60
F0
60
60
7C
ENDCHAR
STARTCHAR lslash
ENCODING 322
SWIDTH 468 0
DWIDTH 4 0
BBX 4 7 0 0
BITMAP
60
60
60
F0
60
60
70
ENDCHAR
STARTCHAR OE
ENCODING 338
SWIDTH 1092 0
DWIDTH 10 0
BBX 10 7 0 0
BITMAP
1F80
7FC0
CC00
CF80
CF00
7F80
3FC0
ENDCHAR
STARTCHAR oe
ENCODING 339
SWIDTH 944 0
DWIDTH 9 0
BBX 8 5 0 0
BITMAP
76
FF
CF
FD
7F
ENDCHAR
STARTCHAR Scaron
ENCODING 352
SWIDTH 583 0
DWIDTH 5 0
BBX 5 9 0 0
BITMAP
50
70
70
F8
C0
70
18
D8
70
ENDCHAR
STARTCHAR scaron
ENCODING 353
SWIDTH 489 0
DWIDTH 4 0
BBX 4 7 0 0
BITMAP
F0
60
70
D0
70
90
F0
ENDCHAR
STARTCHAR Ydieresis
ENCODING 376
SWIDTH 686 0
DWIDTH 6 0
BBX 6 9 0 0
BITMAP
68
78
44
CC
78
38
30
30
30
ENDCHAR
STARTCHAR Zcaron
ENCODING 381
SWIDTH 643 0
DWIDTH 6 0
BBX 6 9 0 0
BITMAP
58
70
F8
F8
18
30
60
78
FC
ENDCHAR
STARTCHAR zcaron
ENCODING 382
SWIDTH 586 0
DWIDTH 5 0
BBX 5 7 0 0
BITMAP
78
30
78
F8
30
78
F8
ENDCHAR
STARTCHAR florin
ENCODING 402
SWIDTH 529 0
DWIDTH 5 0
BBX 5 9 0 -2
BITMAP
18
38
20
78
20
60
60
60
C0
ENDCHAR
STARTCHAR circumflex
ENCODING 710
SWIDTH 603 0
DWIDTH 5 0
BBX 4 2 1 5
BITMAP
F0
A0
ENDCHAR
STARTCHAR caron
ENCODING 711
SWIDTH 600 0
DWIDTH 5 0
BBX 4 2 1 5
BITMAP
F0
60
ENDCHAR
STARTCHAR dotaccent
ENCODING 729
SWIDTH 285 0
DWIDTH 3 0
BBX 1 2 1 6
BITMAP
80
80
ENDCHAR
STARTCHAR ring
ENCODING 730
SWIDTH 378 0
DWIDTH 3 0
BBX 2 2 1 6
BITMAP
C0
C0
ENDCHAR
STARTCHAR ogonek
ENCODING 731
SWIDTH 570 0
DWIDTH 5 0
BBX 1 2 2 -2
BITMAP
80
80
ENDCHAR
STARTCHAR tilde
ENCODING 732
SWIDTH 584 0
DWIDTH 5 0
BBX 3 2 1 5
BITMAP
E0
E0
ENDCHAR
STARTCHAR endash
ENCODING 8211
SWIDTH 561 0
DWIDTH 5 0
BBX 5 1 0 2
BITMAP
F8
ENDCHAR
STARTCHAR emdash
ENCODING 8212
SWIDTH 693 0
DWIDTH 6 0
BBX 6 1 0 2
BITMAP
FC
ENDCHAR
STARTCHAR quoteleft
ENCODING 8216
SWIDTH 237 0
DWIDTH 2 0
BBX 2 4 0 3
BITMAP
40
80
C0
40
ENDCHAR
STARTCHAR quoteright
ENCODING 8217
SWIDTH 237 0
DWIDTH 2 0
BBX 2 4 0 3
BITMAP
C0
C0
40
80
ENDCHAR
STARTCHAR quotesinglbase
ENCODING 8218
SWIDTH 237 0
DWIDTH 2 0
BBX 2 3 0 -1
BITMAP
C0
C0
C0
ENDCHAR
STARTCHAR quotedblleft
ENCODING 8220
SWIDTH 482 0
DWIDTH 4 0
BBX 4 4 0 3
BITMAP
50
90
F0
50
ENDCHAR
STARTCHAR quotedblright
ENCODING 8221
SWIDTH 482 0
DWIDTH 4 0
BBX 4 4 0 3
BITMAP
D0
F0
50
A0
ENDCHAR
STARTCHAR quotedblbase
ENCODING 8222
SWIDTH 482 0
DWIDTH 4 0
BBX 4 3 0 -1
BITMAP
D0
F0
F0
ENDCHAR
STARTCHAR dagger
ENCODING 8224
SWIDTH 527 0
DWIDTH 5 0
BBX 5 9 0 -2
BITMAP
20
20
F0
F8
20
20
20
20
20
ENDCHAR
STARTCHAR daggerdbl
ENCODING 8225
SWIDTH 527 0
DWIDTH 5 0
BBX 5 9 0 -2
BITMAP
20
20
F0
F8
20
F8
F0
20
20
ENDCHAR
STARTCHAR bullet
ENCODING 8226
SWIDTH 342 0
DWIDTH 3 0
BBX 3 2 0 2
BITMAP
E0
E0
ENDCHAR
STARTCHAR ellipsis
ENCODING 8230
SWIDTH 911 0
DWIDTH 8 0
BBX 8 2 0 0
BITMAP
DB
DB
ENDCHAR
STARTCHAR perthousand
ENCODING 8240
SWIDTH 1223 0
DWIDTH 11 0
BBX 11 7 0 0
BITMAP
6400
E800
A800
7000
1EC0
2AA0
26C0
ENDCHAR
STARTCHAR guilsinglleft
ENCODING 8249
SWIDTH 383 0
DWIDTH 3 0
BBX 3 5 0 0
BITMAP
20
60
C0
60
20
ENDCHAR
STARTCHAR guilsinglright
ENCODING 8250
SWIDTH 383 0
DWIDTH 3 0
BBX 3 5 0 0
BITMAP
80
C0
60
60
C0
ENDCHAR
STARTCHAR fraction
ENCODING 8260
SWIDTH 433 0
DWIDTH 4 0
BBX 5 7 0 0
BITMAP
08
10
10
20
20
40
80
ENDCHAR
STARTCHAR Euro
ENCODING 8364
SWIDTH 612 0
DWIDTH 6 0
BBX 5 7 0 0
BITMAP
38
78
F8
40
F8
78
38
ENDCHAR
STARTCHAR trademark
ENCODING 8482
SWIDTH 840 0
DWIDTH 8 0
BBX 7 4 0 2
BITMAP
EA
4E
4E
4A
ENDCHAR
STARTCHAR minus
ENCODING 8722
SWIDTH 581 0
DWIDTH 5 0
BBX 5 1 0 2
BITMAP
F8
ENDCHAR
STARTCHAR f_f
ENCODING 64256
SWIDTH 803 0
DWIDTH 7 0
BBX 7 7 0 0
BITMAP
36
6E
FE
FE
6C
6C
6C
ENDCHAR
STARTCHAR fi
ENCODING 64257
SWIDTH 709 0
DWIDTH 6 0
BBX 6 7 0 0
BITMAP
3C
64
F4
FC
6C
6C
6C
ENDCHAR
STARTCHAR fl
ENCODING 64258
SWIDTH 774 0
DWIDTH 7 0
BBX 7 7 0 0
BITMAP
3C
6C
FC
FC
6C
6E
66
ENDCHAR
STARTCHAR f_f_i
ENCODING 64259
SWIDTH 1059 0
DWIDTH 10 0
BBX 9 7 0 0
BITMAP
3680
6E80
FE80
FE80
6C80
6C80
6C80
ENDCHAR
STARTCHAR .notdef
ENCODING -1
SWIDTH 500 0
DWIDTH 5 0
BBX 1 1 0 0
BITMAP
00
ENDCHAR
STARTCHAR .null
ENCODING -1
SWIDTH 0 0
DWIDTH 0 0
BBX 1 1 0 0
BITMAP
00
ENDCHAR
STARTCHAR nonmarkingreturn
ENCODING -1
SWIDTH 333 0
DWIDTH 3 0
BBX 1 1 0 0
BITMAP
00
ENDCHAR
STARTCHAR f_t
ENCODING -1
SWIDTH 814 0
DWIDTH 7 0
BBX 7 7 0 0
BITMAP
30
6C
FE
FE
6C
6C
66
ENDCHAR
STARTCHAR t_t
ENCODING -1
SWIDTH 794 0
DWIDTH 7 0
BBX 7 6 0 0
BITMAP
6C
FE
FE
6C
6C
76
ENDCHAR
STARTCHAR l_l
ENCODING -1
SWIDTH 626 0
DWIDTH 6 0
BBX 6 7 0 0
BITMAP
D0
D0
D0
D0
D0
D8
7C
ENDCHAR
STARTCHAR j_j
ENCODING -1
SWIDTH 521 0
DWIDTH 5 0
BBX 5 9 -1 -2
BITMAP
68
28
68
68
68
68
68
68
D8
ENDCHAR
ENDFONT
